<svg xmlns="http://www.w3.org/2000/svg" viewBox="0 0 512 512" width="192" height="192">
  <rect width="192" height="192" rx="112" fill="#1c1a18"/>
  <g transform="translate(56,56) scale(0.95)">
    <svg viewBox="0 0 422.54 425.2" width="400" height="400">
      <path fill="#d56a9d" d="M323.92,152.52c0-33.18-26.9-60.08-60.08-60.08s-60.08,26.9-60.08,60.08h60.08v60.08c33.18,0,60.08-26.9,60.08-60.08Z"/>
      <path fill="#7dbaf8" d="M143.69,212.6c-33.18,0-60.08,26.9-60.08,60.08s26.9,60.08,60.08,60.08,60.08-26.9,60.08-60.08h-60.08v-60.08Z"/>
      <path fill="#e8e0d4" d="M263.85,212.6v-60.08h-60.08c0,33.18-26.9,60.08-60.08,60.08v60.08h60.08c0-33.18,26.9-60.08,60.08-60.08Z"/>
      <path fill="#d56a9d" d="M143.69,212.6c33.18,0,60.08-26.9,60.08-60.08h0s-60.08,0-60.08,0v60.08Z"/>
      <path fill="#7dbaf8" d="M203.77,272.67h60.08v-60.08c-33.18,0-60.08,26.9-60.08,60.08Z"/>
    </svg>
  </g>
</svg>